<mxfile host="Electron" agent="Mozilla/5.0 (Windows NT 10.0; Win64; x64) AppleWebKit/537.36 (KHTML, like Gecko) draw.io/27.0.9 Chrome/134.0.6998.205 Electron/35.4.0 Safari/537.36" version="27.0.9" pages="4">
  <diagram name="caso_negocio" id="Uc-BJHTzCWchA6kTkHRb">
    <mxGraphModel dx="786" dy="564" grid="1" gridSize="10" guides="1" tooltips="1" connect="1" arrows="1" fold="1" page="1" pageScale="1" pageWidth="827" pageHeight="1169" math="0" shadow="0">
      <root>
        <mxCell id="0" />
        <mxCell id="1" parent="0" />
        <mxCell id="zVY56zIQgDFedvrE1qHE-1" value="" style="rounded=1;whiteSpace=wrap;html=1;" vertex="1" parent="1">
          <mxGeometry x="90" y="100" width="640" height="330" as="geometry" />
        </mxCell>
        <mxCell id="zVY56zIQgDFedvrE1qHE-2" value="&lt;h3 data-sourcepos=&quot;3:1-3:49&quot;&gt;Caso de Negocio: Plataforma de proyectos &quot;ProJET Platform&quot;&lt;/h3&gt;&lt;p data-sourcepos=&quot;5:1-5:323&quot;&gt;&lt;strong&gt;ProJET Platform&lt;/strong&gt; es una software en línea usado para ayudar a equipos de desarrollo de software a gestionar sus proyectos de manera eficiente. La plataforma necesita una base de datos robusta para almacenar toda la información relacionada con los usuarios, proyectos, y equipos.&lt;/p&gt;&lt;p data-sourcepos=&quot;7:1-7:57&quot;&gt;El sistema debe poder gestionar la siguiente información:&lt;/p&gt;&lt;ol data-sourcepos=&quot;9:1-17:374&quot;&gt;&lt;li data-sourcepos=&quot;9:1-10:0&quot;&gt;&lt;p data-sourcepos=&quot;9:5-9:289&quot;&gt;&lt;strong&gt;Proyectos (project):&lt;/strong&gt; Cada proyecto es una iniciativa principal de desarrollo. Debe tener un identificador único (p&lt;code&gt;roject_id&lt;/code&gt;), un nombre (p&lt;code&gt;roject_name&lt;/code&gt;), una descripción detallada (d&lt;code&gt;escription&lt;/code&gt;), una fecha de inicio (s&lt;code&gt;tart_date&lt;/code&gt;) y una fecha de finalización estimada (e&lt;code&gt;nd_date&lt;/code&gt;).&lt;/p&gt;&lt;/li&gt;&lt;li data-sourcepos=&quot;11:1-12:0&quot;&gt;&lt;p data-sourcepos=&quot;11:5-11:277&quot;&gt;&lt;strong&gt;Usuarios (user):&lt;/strong&gt; Son los miembros del equipo que utilizan la plataforma. Para cada usuario, se necesita almacenar un identificador único (u&lt;code&gt;ser_id)&lt;/code&gt;, su nombre completo (f&lt;code&gt;ull_name&lt;/code&gt;), su correo electrónico (e&lt;code&gt;mail&lt;/code&gt;), que debe ser único, y la fecha en que se unió a la plataforma (j&lt;code&gt;oin_date&lt;/code&gt;).&lt;/p&gt;&lt;/li&gt;&lt;li data-sourcepos=&quot;13:1-14:0&quot;&gt;&lt;p data-sourcepos=&quot;13:5-13:335&quot;&gt;&lt;strong&gt;Equipos (team):&lt;/strong&gt; Los usuarios se organizan en equipos para colaborar en los proyectos. Cada equipo tiene un identificador (t&lt;code&gt;eam_id)&lt;/code&gt;&amp;nbsp;y un nombre (t&lt;code&gt;eam_name&lt;/code&gt;). Un usuario puede pertenecer a varios equipos y un equipo está compuesto por múltiples usuarios. Se debe registrar la fecha (a&lt;code&gt;ssignment_date&lt;/code&gt;) en que un usuario es asignado a un equipo.&lt;/p&gt;&lt;/li&gt;&lt;/ol&gt;" style="text;html=1;align=left;verticalAlign=middle;whiteSpace=wrap;rounded=0;" vertex="1" parent="1">
          <mxGeometry x="114" y="120" width="600" height="310" as="geometry" />
        </mxCell>
      </root>
    </mxGraphModel>
  </diagram>
  <diagram id="qfKxxNryLMJHXcZnuIdM" name="modelo_conceptual">
    <mxGraphModel dx="786" dy="564" grid="1" gridSize="10" guides="1" tooltips="1" connect="1" arrows="1" fold="1" page="1" pageScale="1" pageWidth="827" pageHeight="1169" math="0" shadow="0">
      <root>
        <mxCell id="0" />
        <mxCell id="1" parent="0" />
        <mxCell id="zF_TBe2unUzJJC9nvNSn-3" style="edgeStyle=orthogonalEdgeStyle;rounded=0;orthogonalLoop=1;jettySize=auto;html=1;entryX=0.5;entryY=0;entryDx=0;entryDy=0;endArrow=baseDash;endFill=0;" edge="1" parent="1" source="NmsENvQLAw7UVeePWMrA-1" target="zF_TBe2unUzJJC9nvNSn-1">
          <mxGeometry relative="1" as="geometry" />
        </mxCell>
        <mxCell id="NmsENvQLAw7UVeePWMrA-1" value="project" style="rounded=0;whiteSpace=wrap;html=1;fillColor=#76608a;fontColor=#ffffff;strokeColor=#432D57;" vertex="1" parent="1">
          <mxGeometry x="140" y="170" width="120" height="60" as="geometry" />
        </mxCell>
        <mxCell id="gNAb3sCvXXR0bMkfYq6s-2" value="team" style="rounded=0;whiteSpace=wrap;html=1;fillColor=#76608a;fontColor=#ffffff;strokeColor=#432D57;" vertex="1" parent="1">
          <mxGeometry x="400" y="300" width="120" height="60" as="geometry" />
        </mxCell>
        <mxCell id="gNAb3sCvXXR0bMkfYq6s-5" value="user" style="rounded=0;whiteSpace=wrap;html=1;fillColor=#76608a;fontColor=#ffffff;strokeColor=#432D57;" vertex="1" parent="1">
          <mxGeometry x="600" y="170" width="120" height="60" as="geometry" />
        </mxCell>
        <mxCell id="MqHKXeCwwVoBgCDHkhly-9" style="edgeStyle=orthogonalEdgeStyle;rounded=0;orthogonalLoop=1;jettySize=auto;html=1;entryX=0.25;entryY=0;entryDx=0;entryDy=0;endArrow=none;startFill=0;" edge="1" parent="1" source="MqHKXeCwwVoBgCDHkhly-1" target="NmsENvQLAw7UVeePWMrA-1">
          <mxGeometry relative="1" as="geometry" />
        </mxCell>
        <mxCell id="MqHKXeCwwVoBgCDHkhly-1" value="project_id" style="shape=hexagon;perimeter=hexagonPerimeter2;whiteSpace=wrap;html=1;fixedSize=1;fillColor=#1ba1e2;fontColor=#ffffff;strokeColor=#006EAF;" vertex="1" parent="1">
          <mxGeometry x="20" y="50" width="90" height="60" as="geometry" />
        </mxCell>
        <mxCell id="MqHKXeCwwVoBgCDHkhly-10" style="edgeStyle=orthogonalEdgeStyle;rounded=0;orthogonalLoop=1;jettySize=auto;html=1;endArrow=none;startFill=0;" edge="1" parent="1" source="MqHKXeCwwVoBgCDHkhly-3" target="NmsENvQLAw7UVeePWMrA-1">
          <mxGeometry relative="1" as="geometry" />
        </mxCell>
        <mxCell id="MqHKXeCwwVoBgCDHkhly-3" value="project_name" style="shape=hexagon;perimeter=hexagonPerimeter2;whiteSpace=wrap;html=1;fixedSize=1;fillColor=#1ba1e2;fontColor=#ffffff;strokeColor=#006EAF;" vertex="1" parent="1">
          <mxGeometry x="155" y="10" width="90" height="60" as="geometry" />
        </mxCell>
        <mxCell id="MqHKXeCwwVoBgCDHkhly-8" style="edgeStyle=orthogonalEdgeStyle;rounded=0;orthogonalLoop=1;jettySize=auto;html=1;exitX=1;exitY=0.5;exitDx=0;exitDy=0;entryX=0;entryY=0.5;entryDx=0;entryDy=0;endArrow=none;startFill=0;" edge="1" parent="1" source="MqHKXeCwwVoBgCDHkhly-4" target="NmsENvQLAw7UVeePWMrA-1">
          <mxGeometry relative="1" as="geometry" />
        </mxCell>
        <mxCell id="MqHKXeCwwVoBgCDHkhly-4" value="description" style="shape=hexagon;perimeter=hexagonPerimeter2;whiteSpace=wrap;html=1;fixedSize=1;fillColor=#1ba1e2;fontColor=#ffffff;strokeColor=#006EAF;" vertex="1" parent="1">
          <mxGeometry x="20" y="130" width="90" height="60" as="geometry" />
        </mxCell>
        <mxCell id="MqHKXeCwwVoBgCDHkhly-11" style="edgeStyle=orthogonalEdgeStyle;rounded=0;orthogonalLoop=1;jettySize=auto;html=1;entryX=0.75;entryY=0;entryDx=0;entryDy=0;endArrow=none;startFill=0;" edge="1" parent="1" source="MqHKXeCwwVoBgCDHkhly-6" target="NmsENvQLAw7UVeePWMrA-1">
          <mxGeometry relative="1" as="geometry" />
        </mxCell>
        <mxCell id="MqHKXeCwwVoBgCDHkhly-6" value="start_date" style="shape=hexagon;perimeter=hexagonPerimeter2;whiteSpace=wrap;html=1;fixedSize=1;fillColor=#1ba1e2;fontColor=#ffffff;strokeColor=#006EAF;" vertex="1" parent="1">
          <mxGeometry x="240" y="50" width="90" height="60" as="geometry" />
        </mxCell>
        <mxCell id="MqHKXeCwwVoBgCDHkhly-12" style="edgeStyle=orthogonalEdgeStyle;rounded=0;orthogonalLoop=1;jettySize=auto;html=1;entryX=1;entryY=0.5;entryDx=0;entryDy=0;endArrow=none;startFill=0;" edge="1" parent="1" source="MqHKXeCwwVoBgCDHkhly-7" target="NmsENvQLAw7UVeePWMrA-1">
          <mxGeometry relative="1" as="geometry">
            <Array as="points">
              <mxPoint x="340" y="80" />
              <mxPoint x="340" y="200" />
            </Array>
          </mxGeometry>
        </mxCell>
        <mxCell id="MqHKXeCwwVoBgCDHkhly-7" value="end_date" style="shape=hexagon;perimeter=hexagonPerimeter2;whiteSpace=wrap;html=1;fixedSize=1;fillColor=#1ba1e2;fontColor=#ffffff;strokeColor=#006EAF;" vertex="1" parent="1">
          <mxGeometry x="350" y="50" width="90" height="60" as="geometry" />
        </mxCell>
        <mxCell id="zF_TBe2unUzJJC9nvNSn-2" style="edgeStyle=orthogonalEdgeStyle;rounded=0;orthogonalLoop=1;jettySize=auto;html=1;entryX=0;entryY=0.5;entryDx=0;entryDy=0;endArrow=ERmany;endFill=0;" edge="1" parent="1" source="zF_TBe2unUzJJC9nvNSn-1" target="gNAb3sCvXXR0bMkfYq6s-2">
          <mxGeometry relative="1" as="geometry" />
        </mxCell>
        <mxCell id="zF_TBe2unUzJJC9nvNSn-1" value="tiene" style="rhombus;whiteSpace=wrap;html=1;" vertex="1" parent="1">
          <mxGeometry x="160" y="290" width="80" height="80" as="geometry" />
        </mxCell>
        <mxCell id="QgL_YGDa3o0WFRptIa9P-1" style="edgeStyle=orthogonalEdgeStyle;rounded=0;orthogonalLoop=1;jettySize=auto;html=1;entryX=0.25;entryY=1;entryDx=0;entryDy=0;endArrow=none;startFill=0;" edge="1" parent="1" source="zF_TBe2unUzJJC9nvNSn-4" target="gNAb3sCvXXR0bMkfYq6s-2">
          <mxGeometry relative="1" as="geometry" />
        </mxCell>
        <mxCell id="zF_TBe2unUzJJC9nvNSn-4" value="team_name" style="shape=hexagon;perimeter=hexagonPerimeter2;whiteSpace=wrap;html=1;fixedSize=1;fillColor=#1ba1e2;fontColor=#ffffff;strokeColor=#006EAF;" vertex="1" parent="1">
          <mxGeometry x="340" y="410" width="90" height="60" as="geometry" />
        </mxCell>
        <mxCell id="QgL_YGDa3o0WFRptIa9P-2" style="edgeStyle=orthogonalEdgeStyle;rounded=0;orthogonalLoop=1;jettySize=auto;html=1;entryX=0.75;entryY=1;entryDx=0;entryDy=0;endArrow=none;startFill=0;" edge="1" parent="1" source="zF_TBe2unUzJJC9nvNSn-5" target="gNAb3sCvXXR0bMkfYq6s-2">
          <mxGeometry relative="1" as="geometry" />
        </mxCell>
        <mxCell id="zF_TBe2unUzJJC9nvNSn-5" value="team_id" style="shape=hexagon;perimeter=hexagonPerimeter2;whiteSpace=wrap;html=1;fixedSize=1;fillColor=#1ba1e2;fontColor=#ffffff;strokeColor=#006EAF;" vertex="1" parent="1">
          <mxGeometry x="480" y="410" width="90" height="60" as="geometry" />
        </mxCell>
        <mxCell id="QgL_YGDa3o0WFRptIa9P-5" style="edgeStyle=orthogonalEdgeStyle;rounded=0;orthogonalLoop=1;jettySize=auto;html=1;endArrow=ERmany;endFill=0;" edge="1" parent="1" source="QgL_YGDa3o0WFRptIa9P-3" target="gNAb3sCvXXR0bMkfYq6s-5">
          <mxGeometry relative="1" as="geometry" />
        </mxCell>
        <mxCell id="QgL_YGDa3o0WFRptIa9P-6" value="" style="edgeStyle=orthogonalEdgeStyle;rounded=0;orthogonalLoop=1;jettySize=auto;html=1;endArrow=ERmany;endFill=0;" edge="1" parent="1" source="QgL_YGDa3o0WFRptIa9P-3" target="gNAb3sCvXXR0bMkfYq6s-2">
          <mxGeometry relative="1" as="geometry" />
        </mxCell>
        <mxCell id="QgL_YGDa3o0WFRptIa9P-3" value="compone" style="rhombus;whiteSpace=wrap;html=1;" vertex="1" parent="1">
          <mxGeometry x="620" y="290" width="80" height="80" as="geometry" />
        </mxCell>
        <mxCell id="oSL9ISnFuizxGOV_VpWW-5" style="edgeStyle=orthogonalEdgeStyle;rounded=0;orthogonalLoop=1;jettySize=auto;html=1;entryX=0;entryY=0.5;entryDx=0;entryDy=0;endArrow=none;startFill=0;" edge="1" parent="1" source="QgL_YGDa3o0WFRptIa9P-7" target="gNAb3sCvXXR0bMkfYq6s-5">
          <mxGeometry relative="1" as="geometry" />
        </mxCell>
        <mxCell id="QgL_YGDa3o0WFRptIa9P-7" value="user_id" style="shape=hexagon;perimeter=hexagonPerimeter2;whiteSpace=wrap;html=1;fixedSize=1;fillColor=#1ba1e2;fontColor=#ffffff;strokeColor=#006EAF;" vertex="1" parent="1">
          <mxGeometry x="470" y="170" width="90" height="60" as="geometry" />
        </mxCell>
        <mxCell id="oSL9ISnFuizxGOV_VpWW-4" style="edgeStyle=orthogonalEdgeStyle;rounded=0;orthogonalLoop=1;jettySize=auto;html=1;entryX=0.25;entryY=0;entryDx=0;entryDy=0;endArrow=none;startFill=0;" edge="1" parent="1" source="QgL_YGDa3o0WFRptIa9P-8" target="gNAb3sCvXXR0bMkfYq6s-5">
          <mxGeometry relative="1" as="geometry" />
        </mxCell>
        <mxCell id="QgL_YGDa3o0WFRptIa9P-8" value="full_name" style="shape=hexagon;perimeter=hexagonPerimeter2;whiteSpace=wrap;html=1;fixedSize=1;fillColor=#1ba1e2;fontColor=#ffffff;strokeColor=#006EAF;" vertex="1" parent="1">
          <mxGeometry x="520" y="80" width="90" height="60" as="geometry" />
        </mxCell>
        <mxCell id="oSL9ISnFuizxGOV_VpWW-3" style="edgeStyle=orthogonalEdgeStyle;rounded=0;orthogonalLoop=1;jettySize=auto;html=1;entryX=0.75;entryY=0;entryDx=0;entryDy=0;endArrow=none;startFill=0;" edge="1" parent="1" source="QgL_YGDa3o0WFRptIa9P-9" target="gNAb3sCvXXR0bMkfYq6s-5">
          <mxGeometry relative="1" as="geometry" />
        </mxCell>
        <mxCell id="QgL_YGDa3o0WFRptIa9P-9" value="email" style="shape=hexagon;perimeter=hexagonPerimeter2;whiteSpace=wrap;html=1;fixedSize=1;fillColor=#1ba1e2;fontColor=#ffffff;strokeColor=#006EAF;" vertex="1" parent="1">
          <mxGeometry x="640" y="80" width="90" height="60" as="geometry" />
        </mxCell>
        <mxCell id="oSL9ISnFuizxGOV_VpWW-2" style="edgeStyle=orthogonalEdgeStyle;rounded=0;orthogonalLoop=1;jettySize=auto;html=1;entryX=1;entryY=0.5;entryDx=0;entryDy=0;endArrow=none;startFill=0;" edge="1" parent="1" source="oSL9ISnFuizxGOV_VpWW-1" target="gNAb3sCvXXR0bMkfYq6s-5">
          <mxGeometry relative="1" as="geometry">
            <Array as="points">
              <mxPoint x="780" y="210" />
              <mxPoint x="740" y="210" />
              <mxPoint x="740" y="200" />
            </Array>
          </mxGeometry>
        </mxCell>
        <mxCell id="oSL9ISnFuizxGOV_VpWW-1" value="join_date" style="shape=hexagon;perimeter=hexagonPerimeter2;whiteSpace=wrap;html=1;fixedSize=1;fillColor=#1ba1e2;fontColor=#ffffff;strokeColor=#006EAF;" vertex="1" parent="1">
          <mxGeometry x="730" y="230" width="90" height="60" as="geometry" />
        </mxCell>
      </root>
    </mxGraphModel>
  </diagram>
  <diagram id="zv-YfzM14sKlz5h9QFOK" name="modelo_logico">
    <mxGraphModel dx="786" dy="564" grid="1" gridSize="10" guides="1" tooltips="1" connect="1" arrows="1" fold="1" page="1" pageScale="1" pageWidth="827" pageHeight="1169" math="0" shadow="0">
      <root>
        <mxCell id="0" />
        <mxCell id="1" parent="0" />
        <mxCell id="Vp7MoAvmDOucq7oe5y4D-1" value="project" style="swimlane;fontStyle=0;childLayout=stackLayout;horizontal=1;startSize=26;horizontalStack=0;resizeParent=1;resizeParentMax=0;resizeLast=0;collapsible=1;marginBottom=0;align=center;fontSize=14;" vertex="1" parent="1">
          <mxGeometry x="100" y="70" width="190" height="176" as="geometry" />
        </mxCell>
        <mxCell id="Vp7MoAvmDOucq7oe5y4D-2" value="project_id INT (PK)" style="text;strokeColor=none;fillColor=none;spacingLeft=4;spacingRight=4;overflow=hidden;rotatable=0;points=[[0,0.5],[1,0.5]];portConstraint=eastwest;fontSize=12;whiteSpace=wrap;html=1;" vertex="1" parent="Vp7MoAvmDOucq7oe5y4D-1">
          <mxGeometry y="26" width="190" height="30" as="geometry" />
        </mxCell>
        <mxCell id="Vp7MoAvmDOucq7oe5y4D-3" value="project_name VARCHAR(50)" style="text;strokeColor=none;fillColor=none;spacingLeft=4;spacingRight=4;overflow=hidden;rotatable=0;points=[[0,0.5],[1,0.5]];portConstraint=eastwest;fontSize=12;whiteSpace=wrap;html=1;" vertex="1" parent="Vp7MoAvmDOucq7oe5y4D-1">
          <mxGeometry y="56" width="190" height="30" as="geometry" />
        </mxCell>
        <mxCell id="Vp7MoAvmDOucq7oe5y4D-4" value="description VARCHAR(100)" style="text;strokeColor=none;fillColor=none;spacingLeft=4;spacingRight=4;overflow=hidden;rotatable=0;points=[[0,0.5],[1,0.5]];portConstraint=eastwest;fontSize=12;whiteSpace=wrap;html=1;" vertex="1" parent="Vp7MoAvmDOucq7oe5y4D-1">
          <mxGeometry y="86" width="190" height="30" as="geometry" />
        </mxCell>
        <mxCell id="0EDcUddaQj9dHaTDLlSe-2" value="start_date DATE" style="text;strokeColor=none;fillColor=none;spacingLeft=4;spacingRight=4;overflow=hidden;rotatable=0;points=[[0,0.5],[1,0.5]];portConstraint=eastwest;fontSize=12;whiteSpace=wrap;html=1;" vertex="1" parent="Vp7MoAvmDOucq7oe5y4D-1">
          <mxGeometry y="116" width="190" height="30" as="geometry" />
        </mxCell>
        <mxCell id="0EDcUddaQj9dHaTDLlSe-1" value="end_date DATE" style="text;strokeColor=none;fillColor=none;spacingLeft=4;spacingRight=4;overflow=hidden;rotatable=0;points=[[0,0.5],[1,0.5]];portConstraint=eastwest;fontSize=12;whiteSpace=wrap;html=1;" vertex="1" parent="Vp7MoAvmDOucq7oe5y4D-1">
          <mxGeometry y="146" width="190" height="30" as="geometry" />
        </mxCell>
        <mxCell id="Vp7MoAvmDOucq7oe5y4D-5" value="user" style="swimlane;fontStyle=0;childLayout=stackLayout;horizontal=1;startSize=26;horizontalStack=0;resizeParent=1;resizeParentMax=0;resizeLast=0;collapsible=1;marginBottom=0;align=center;fontSize=14;" vertex="1" parent="1">
          <mxGeometry x="410" y="80" width="160" height="146" as="geometry" />
        </mxCell>
        <mxCell id="Vp7MoAvmDOucq7oe5y4D-6" value="user_id INT (PK)" style="text;strokeColor=none;fillColor=none;spacingLeft=4;spacingRight=4;overflow=hidden;rotatable=0;points=[[0,0.5],[1,0.5]];portConstraint=eastwest;fontSize=12;whiteSpace=wrap;html=1;" vertex="1" parent="Vp7MoAvmDOucq7oe5y4D-5">
          <mxGeometry y="26" width="160" height="30" as="geometry" />
        </mxCell>
        <mxCell id="Vp7MoAvmDOucq7oe5y4D-7" value="full_name VARCHAR(100)" style="text;strokeColor=none;fillColor=none;spacingLeft=4;spacingRight=4;overflow=hidden;rotatable=0;points=[[0,0.5],[1,0.5]];portConstraint=eastwest;fontSize=12;whiteSpace=wrap;html=1;" vertex="1" parent="Vp7MoAvmDOucq7oe5y4D-5">
          <mxGeometry y="56" width="160" height="30" as="geometry" />
        </mxCell>
        <mxCell id="Vp7MoAvmDOucq7oe5y4D-8" value="email VARCHAR(50)" style="text;strokeColor=none;fillColor=none;spacingLeft=4;spacingRight=4;overflow=hidden;rotatable=0;points=[[0,0.5],[1,0.5]];portConstraint=eastwest;fontSize=12;whiteSpace=wrap;html=1;" vertex="1" parent="Vp7MoAvmDOucq7oe5y4D-5">
          <mxGeometry y="86" width="160" height="30" as="geometry" />
        </mxCell>
        <mxCell id="JJCI2evylPjiJcVLz0Yq-1" value="join_date DATE" style="text;strokeColor=none;fillColor=none;spacingLeft=4;spacingRight=4;overflow=hidden;rotatable=0;points=[[0,0.5],[1,0.5]];portConstraint=eastwest;fontSize=12;whiteSpace=wrap;html=1;" vertex="1" parent="Vp7MoAvmDOucq7oe5y4D-5">
          <mxGeometry y="116" width="160" height="30" as="geometry" />
        </mxCell>
        <mxCell id="Vp7MoAvmDOucq7oe5y4D-9" value="team" style="swimlane;fontStyle=0;childLayout=stackLayout;horizontal=1;startSize=26;horizontalStack=0;resizeParent=1;resizeParentMax=0;resizeLast=0;collapsible=1;marginBottom=0;align=center;fontSize=14;" vertex="1" parent="1">
          <mxGeometry x="200" y="330" width="160" height="116" as="geometry" />
        </mxCell>
        <mxCell id="Vp7MoAvmDOucq7oe5y4D-10" value="team_id INT (PK)" style="text;strokeColor=none;fillColor=none;spacingLeft=4;spacingRight=4;overflow=hidden;rotatable=0;points=[[0,0.5],[1,0.5]];portConstraint=eastwest;fontSize=12;whiteSpace=wrap;html=1;" vertex="1" parent="Vp7MoAvmDOucq7oe5y4D-9">
          <mxGeometry y="26" width="160" height="30" as="geometry" />
        </mxCell>
        <mxCell id="Vp7MoAvmDOucq7oe5y4D-11" value="team_name VARCHAR(50)" style="text;strokeColor=none;fillColor=none;spacingLeft=4;spacingRight=4;overflow=hidden;rotatable=0;points=[[0,0.5],[1,0.5]];portConstraint=eastwest;fontSize=12;whiteSpace=wrap;html=1;" vertex="1" parent="Vp7MoAvmDOucq7oe5y4D-9">
          <mxGeometry y="56" width="160" height="30" as="geometry" />
        </mxCell>
        <mxCell id="su_3amtqhQNUAAbCowS--1" value="project_id INT (FK)" style="text;strokeColor=none;fillColor=none;spacingLeft=4;spacingRight=4;overflow=hidden;rotatable=0;points=[[0,0.5],[1,0.5]];portConstraint=eastwest;fontSize=12;whiteSpace=wrap;html=1;" vertex="1" parent="Vp7MoAvmDOucq7oe5y4D-9">
          <mxGeometry y="86" width="160" height="30" as="geometry" />
        </mxCell>
        <mxCell id="Vp7MoAvmDOucq7oe5y4D-13" value="team_member" style="swimlane;fontStyle=0;childLayout=stackLayout;horizontal=1;startSize=26;horizontalStack=0;resizeParent=1;resizeParentMax=0;resizeLast=0;collapsible=1;marginBottom=0;align=center;fontSize=14;" vertex="1" parent="1">
          <mxGeometry x="460" y="300" width="160" height="146" as="geometry" />
        </mxCell>
        <mxCell id="Vp7MoAvmDOucq7oe5y4D-14" value="team_member_id INT (PK)" style="text;strokeColor=none;fillColor=none;spacingLeft=4;spacingRight=4;overflow=hidden;rotatable=0;points=[[0,0.5],[1,0.5]];portConstraint=eastwest;fontSize=12;whiteSpace=wrap;html=1;" vertex="1" parent="Vp7MoAvmDOucq7oe5y4D-13">
          <mxGeometry y="26" width="160" height="30" as="geometry" />
        </mxCell>
        <mxCell id="Vp7MoAvmDOucq7oe5y4D-15" value="team_id INT (FK)" style="text;strokeColor=none;fillColor=none;spacingLeft=4;spacingRight=4;overflow=hidden;rotatable=0;points=[[0,0.5],[1,0.5]];portConstraint=eastwest;fontSize=12;whiteSpace=wrap;html=1;" vertex="1" parent="Vp7MoAvmDOucq7oe5y4D-13">
          <mxGeometry y="56" width="160" height="30" as="geometry" />
        </mxCell>
        <mxCell id="Vp7MoAvmDOucq7oe5y4D-16" value="user_id INT (FK)" style="text;strokeColor=none;fillColor=none;spacingLeft=4;spacingRight=4;overflow=hidden;rotatable=0;points=[[0,0.5],[1,0.5]];portConstraint=eastwest;fontSize=12;whiteSpace=wrap;html=1;" vertex="1" parent="Vp7MoAvmDOucq7oe5y4D-13">
          <mxGeometry y="86" width="160" height="30" as="geometry" />
        </mxCell>
        <mxCell id="XgccUdSzz5vQKFynXTfd-1" value="assignment_date DATE" style="text;strokeColor=none;fillColor=none;spacingLeft=4;spacingRight=4;overflow=hidden;rotatable=0;points=[[0,0.5],[1,0.5]];portConstraint=eastwest;fontSize=12;whiteSpace=wrap;html=1;" vertex="1" parent="Vp7MoAvmDOucq7oe5y4D-13">
          <mxGeometry y="116" width="160" height="30" as="geometry" />
        </mxCell>
        <mxCell id="_pEkloUXyNhPGVLkfD5u-1" style="edgeStyle=orthogonalEdgeStyle;rounded=0;orthogonalLoop=1;jettySize=auto;html=1;entryX=0;entryY=0.5;entryDx=0;entryDy=0;endArrow=none;startFill=0;" edge="1" parent="1" source="Vp7MoAvmDOucq7oe5y4D-2" target="su_3amtqhQNUAAbCowS--1">
          <mxGeometry relative="1" as="geometry" />
        </mxCell>
        <mxCell id="_pEkloUXyNhPGVLkfD5u-2" style="edgeStyle=orthogonalEdgeStyle;rounded=0;orthogonalLoop=1;jettySize=auto;html=1;entryX=0;entryY=0.5;entryDx=0;entryDy=0;endArrow=none;startFill=0;" edge="1" parent="1" source="Vp7MoAvmDOucq7oe5y4D-10" target="Vp7MoAvmDOucq7oe5y4D-15">
          <mxGeometry relative="1" as="geometry" />
        </mxCell>
        <mxCell id="_pEkloUXyNhPGVLkfD5u-3" style="edgeStyle=orthogonalEdgeStyle;rounded=0;orthogonalLoop=1;jettySize=auto;html=1;entryX=1;entryY=0.5;entryDx=0;entryDy=0;endArrow=none;startFill=0;" edge="1" parent="1" source="Vp7MoAvmDOucq7oe5y4D-16" target="Vp7MoAvmDOucq7oe5y4D-6">
          <mxGeometry relative="1" as="geometry">
            <Array as="points">
              <mxPoint x="660" y="401" />
              <mxPoint x="660" y="261" />
              <mxPoint x="590" y="261" />
              <mxPoint x="590" y="121" />
            </Array>
          </mxGeometry>
        </mxCell>
      </root>
    </mxGraphModel>
  </diagram>
  <diagram id="gCX4VwZKndao9pnwcYNa" name="modelo_fisico">
    <mxGraphModel dx="786" dy="564" grid="1" gridSize="10" guides="1" tooltips="1" connect="1" arrows="1" fold="1" page="1" pageScale="1" pageWidth="827" pageHeight="1169" math="0" shadow="0">
      <root>
        <mxCell id="0" />
        <mxCell id="1" parent="0" />
        <mxCell id="ZH82DLPUoogaxoXeRTcu-1" value="project" style="shape=table;startSize=30;container=1;collapsible=1;childLayout=tableLayout;fixedRows=1;rowLines=0;fontStyle=1;align=center;resizeLast=1;html=1;verticalAlign=middle;" vertex="1" parent="1">
          <mxGeometry x="180" y="160" width="180" height="180" as="geometry" />
        </mxCell>
        <mxCell id="ZH82DLPUoogaxoXeRTcu-2" value="" style="shape=tableRow;horizontal=0;startSize=0;swimlaneHead=0;swimlaneBody=0;fillColor=none;collapsible=0;dropTarget=0;points=[[0,0.5],[1,0.5]];portConstraint=eastwest;top=0;left=0;right=0;bottom=1;verticalAlign=middle;" vertex="1" parent="ZH82DLPUoogaxoXeRTcu-1">
          <mxGeometry y="30" width="180" height="30" as="geometry" />
        </mxCell>
        <mxCell id="ZH82DLPUoogaxoXeRTcu-3" value="PK" style="shape=partialRectangle;connectable=0;fillColor=none;top=0;left=0;bottom=0;right=0;fontStyle=1;overflow=hidden;whiteSpace=wrap;html=1;verticalAlign=middle;" vertex="1" parent="ZH82DLPUoogaxoXeRTcu-2">
          <mxGeometry width="30" height="30" as="geometry">
            <mxRectangle width="30" height="30" as="alternateBounds" />
          </mxGeometry>
        </mxCell>
        <mxCell id="ZH82DLPUoogaxoXeRTcu-4" value="project_id" style="shape=partialRectangle;connectable=0;fillColor=none;top=0;left=0;bottom=0;right=0;align=left;spacingLeft=6;fontStyle=5;overflow=hidden;whiteSpace=wrap;html=1;verticalAlign=middle;" vertex="1" parent="ZH82DLPUoogaxoXeRTcu-2">
          <mxGeometry x="30" width="150" height="30" as="geometry">
            <mxRectangle width="150" height="30" as="alternateBounds" />
          </mxGeometry>
        </mxCell>
        <mxCell id="ZH82DLPUoogaxoXeRTcu-5" value="" style="shape=tableRow;horizontal=0;startSize=0;swimlaneHead=0;swimlaneBody=0;fillColor=none;collapsible=0;dropTarget=0;points=[[0,0.5],[1,0.5]];portConstraint=eastwest;top=0;left=0;right=0;bottom=0;verticalAlign=middle;" vertex="1" parent="ZH82DLPUoogaxoXeRTcu-1">
          <mxGeometry y="60" width="180" height="30" as="geometry" />
        </mxCell>
        <mxCell id="ZH82DLPUoogaxoXeRTcu-6" value="" style="shape=partialRectangle;connectable=0;fillColor=none;top=0;left=0;bottom=0;right=0;editable=1;overflow=hidden;whiteSpace=wrap;html=1;verticalAlign=middle;" vertex="1" parent="ZH82DLPUoogaxoXeRTcu-5">
          <mxGeometry width="30" height="30" as="geometry">
            <mxRectangle width="30" height="30" as="alternateBounds" />
          </mxGeometry>
        </mxCell>
        <mxCell id="ZH82DLPUoogaxoXeRTcu-7" value="project_name" style="shape=partialRectangle;connectable=0;fillColor=none;top=0;left=0;bottom=0;right=0;align=left;spacingLeft=6;overflow=hidden;whiteSpace=wrap;html=1;verticalAlign=middle;" vertex="1" parent="ZH82DLPUoogaxoXeRTcu-5">
          <mxGeometry x="30" width="150" height="30" as="geometry">
            <mxRectangle width="150" height="30" as="alternateBounds" />
          </mxGeometry>
        </mxCell>
        <mxCell id="ZH82DLPUoogaxoXeRTcu-8" value="" style="shape=tableRow;horizontal=0;startSize=0;swimlaneHead=0;swimlaneBody=0;fillColor=none;collapsible=0;dropTarget=0;points=[[0,0.5],[1,0.5]];portConstraint=eastwest;top=0;left=0;right=0;bottom=0;verticalAlign=middle;" vertex="1" parent="ZH82DLPUoogaxoXeRTcu-1">
          <mxGeometry y="90" width="180" height="30" as="geometry" />
        </mxCell>
        <mxCell id="ZH82DLPUoogaxoXeRTcu-9" value="" style="shape=partialRectangle;connectable=0;fillColor=none;top=0;left=0;bottom=0;right=0;editable=1;overflow=hidden;whiteSpace=wrap;html=1;verticalAlign=middle;" vertex="1" parent="ZH82DLPUoogaxoXeRTcu-8">
          <mxGeometry width="30" height="30" as="geometry">
            <mxRectangle width="30" height="30" as="alternateBounds" />
          </mxGeometry>
        </mxCell>
        <mxCell id="ZH82DLPUoogaxoXeRTcu-10" value="description" style="shape=partialRectangle;connectable=0;fillColor=none;top=0;left=0;bottom=0;right=0;align=left;spacingLeft=6;overflow=hidden;whiteSpace=wrap;html=1;verticalAlign=middle;" vertex="1" parent="ZH82DLPUoogaxoXeRTcu-8">
          <mxGeometry x="30" width="150" height="30" as="geometry">
            <mxRectangle width="150" height="30" as="alternateBounds" />
          </mxGeometry>
        </mxCell>
        <mxCell id="ZH82DLPUoogaxoXeRTcu-11" value="" style="shape=tableRow;horizontal=0;startSize=0;swimlaneHead=0;swimlaneBody=0;fillColor=none;collapsible=0;dropTarget=0;points=[[0,0.5],[1,0.5]];portConstraint=eastwest;top=0;left=0;right=0;bottom=0;verticalAlign=middle;" vertex="1" parent="ZH82DLPUoogaxoXeRTcu-1">
          <mxGeometry y="120" width="180" height="30" as="geometry" />
        </mxCell>
        <mxCell id="ZH82DLPUoogaxoXeRTcu-12" value="" style="shape=partialRectangle;connectable=0;fillColor=none;top=0;left=0;bottom=0;right=0;editable=1;overflow=hidden;whiteSpace=wrap;html=1;verticalAlign=middle;" vertex="1" parent="ZH82DLPUoogaxoXeRTcu-11">
          <mxGeometry width="30" height="30" as="geometry">
            <mxRectangle width="30" height="30" as="alternateBounds" />
          </mxGeometry>
        </mxCell>
        <mxCell id="ZH82DLPUoogaxoXeRTcu-13" value="start_date" style="shape=partialRectangle;connectable=0;fillColor=none;top=0;left=0;bottom=0;right=0;align=left;spacingLeft=6;overflow=hidden;whiteSpace=wrap;html=1;verticalAlign=middle;" vertex="1" parent="ZH82DLPUoogaxoXeRTcu-11">
          <mxGeometry x="30" width="150" height="30" as="geometry">
            <mxRectangle width="150" height="30" as="alternateBounds" />
          </mxGeometry>
        </mxCell>
        <mxCell id="ZH82DLPUoogaxoXeRTcu-14" style="shape=tableRow;horizontal=0;startSize=0;swimlaneHead=0;swimlaneBody=0;fillColor=none;collapsible=0;dropTarget=0;points=[[0,0.5],[1,0.5]];portConstraint=eastwest;top=0;left=0;right=0;bottom=0;verticalAlign=middle;" vertex="1" parent="ZH82DLPUoogaxoXeRTcu-1">
          <mxGeometry y="150" width="180" height="30" as="geometry" />
        </mxCell>
        <mxCell id="ZH82DLPUoogaxoXeRTcu-15" style="shape=partialRectangle;connectable=0;fillColor=none;top=0;left=0;bottom=0;right=0;editable=1;overflow=hidden;whiteSpace=wrap;html=1;verticalAlign=middle;" vertex="1" parent="ZH82DLPUoogaxoXeRTcu-14">
          <mxGeometry width="30" height="30" as="geometry">
            <mxRectangle width="30" height="30" as="alternateBounds" />
          </mxGeometry>
        </mxCell>
        <mxCell id="ZH82DLPUoogaxoXeRTcu-16" value="end_date" style="shape=partialRectangle;connectable=0;fillColor=none;top=0;left=0;bottom=0;right=0;align=left;spacingLeft=6;overflow=hidden;whiteSpace=wrap;html=1;verticalAlign=middle;" vertex="1" parent="ZH82DLPUoogaxoXeRTcu-14">
          <mxGeometry x="30" width="150" height="30" as="geometry">
            <mxRectangle width="150" height="30" as="alternateBounds" />
          </mxGeometry>
        </mxCell>
        <mxCell id="ZH82DLPUoogaxoXeRTcu-17" value="user" style="shape=table;startSize=30;container=1;collapsible=1;childLayout=tableLayout;fixedRows=1;rowLines=0;fontStyle=1;align=center;resizeLast=1;html=1;verticalAlign=middle;" vertex="1" parent="1">
          <mxGeometry x="560" y="385" width="180" height="150" as="geometry" />
        </mxCell>
        <mxCell id="ZH82DLPUoogaxoXeRTcu-18" value="" style="shape=tableRow;horizontal=0;startSize=0;swimlaneHead=0;swimlaneBody=0;fillColor=none;collapsible=0;dropTarget=0;points=[[0,0.5],[1,0.5]];portConstraint=eastwest;top=0;left=0;right=0;bottom=1;verticalAlign=middle;" vertex="1" parent="ZH82DLPUoogaxoXeRTcu-17">
          <mxGeometry y="30" width="180" height="30" as="geometry" />
        </mxCell>
        <mxCell id="ZH82DLPUoogaxoXeRTcu-19" value="PK" style="shape=partialRectangle;connectable=0;fillColor=none;top=0;left=0;bottom=0;right=0;fontStyle=1;overflow=hidden;whiteSpace=wrap;html=1;verticalAlign=middle;" vertex="1" parent="ZH82DLPUoogaxoXeRTcu-18">
          <mxGeometry width="30" height="30" as="geometry">
            <mxRectangle width="30" height="30" as="alternateBounds" />
          </mxGeometry>
        </mxCell>
        <mxCell id="ZH82DLPUoogaxoXeRTcu-20" value="user_id" style="shape=partialRectangle;connectable=0;fillColor=none;top=0;left=0;bottom=0;right=0;align=left;spacingLeft=6;fontStyle=5;overflow=hidden;whiteSpace=wrap;html=1;verticalAlign=middle;" vertex="1" parent="ZH82DLPUoogaxoXeRTcu-18">
          <mxGeometry x="30" width="150" height="30" as="geometry">
            <mxRectangle width="150" height="30" as="alternateBounds" />
          </mxGeometry>
        </mxCell>
        <mxCell id="ZH82DLPUoogaxoXeRTcu-21" value="" style="shape=tableRow;horizontal=0;startSize=0;swimlaneHead=0;swimlaneBody=0;fillColor=none;collapsible=0;dropTarget=0;points=[[0,0.5],[1,0.5]];portConstraint=eastwest;top=0;left=0;right=0;bottom=0;verticalAlign=middle;" vertex="1" parent="ZH82DLPUoogaxoXeRTcu-17">
          <mxGeometry y="60" width="180" height="30" as="geometry" />
        </mxCell>
        <mxCell id="ZH82DLPUoogaxoXeRTcu-22" value="" style="shape=partialRectangle;connectable=0;fillColor=none;top=0;left=0;bottom=0;right=0;editable=1;overflow=hidden;whiteSpace=wrap;html=1;verticalAlign=middle;" vertex="1" parent="ZH82DLPUoogaxoXeRTcu-21">
          <mxGeometry width="30" height="30" as="geometry">
            <mxRectangle width="30" height="30" as="alternateBounds" />
          </mxGeometry>
        </mxCell>
        <mxCell id="ZH82DLPUoogaxoXeRTcu-23" value="full_name" style="shape=partialRectangle;connectable=0;fillColor=none;top=0;left=0;bottom=0;right=0;align=left;spacingLeft=6;overflow=hidden;whiteSpace=wrap;html=1;verticalAlign=middle;" vertex="1" parent="ZH82DLPUoogaxoXeRTcu-21">
          <mxGeometry x="30" width="150" height="30" as="geometry">
            <mxRectangle width="150" height="30" as="alternateBounds" />
          </mxGeometry>
        </mxCell>
        <mxCell id="ZH82DLPUoogaxoXeRTcu-24" value="" style="shape=tableRow;horizontal=0;startSize=0;swimlaneHead=0;swimlaneBody=0;fillColor=none;collapsible=0;dropTarget=0;points=[[0,0.5],[1,0.5]];portConstraint=eastwest;top=0;left=0;right=0;bottom=0;verticalAlign=middle;" vertex="1" parent="ZH82DLPUoogaxoXeRTcu-17">
          <mxGeometry y="90" width="180" height="30" as="geometry" />
        </mxCell>
        <mxCell id="ZH82DLPUoogaxoXeRTcu-25" value="" style="shape=partialRectangle;connectable=0;fillColor=none;top=0;left=0;bottom=0;right=0;editable=1;overflow=hidden;whiteSpace=wrap;html=1;verticalAlign=middle;" vertex="1" parent="ZH82DLPUoogaxoXeRTcu-24">
          <mxGeometry width="30" height="30" as="geometry">
            <mxRectangle width="30" height="30" as="alternateBounds" />
          </mxGeometry>
        </mxCell>
        <mxCell id="ZH82DLPUoogaxoXeRTcu-26" value="email" style="shape=partialRectangle;connectable=0;fillColor=none;top=0;left=0;bottom=0;right=0;align=left;spacingLeft=6;overflow=hidden;whiteSpace=wrap;html=1;verticalAlign=middle;" vertex="1" parent="ZH82DLPUoogaxoXeRTcu-24">
          <mxGeometry x="30" width="150" height="30" as="geometry">
            <mxRectangle width="150" height="30" as="alternateBounds" />
          </mxGeometry>
        </mxCell>
        <mxCell id="ZH82DLPUoogaxoXeRTcu-27" value="" style="shape=tableRow;horizontal=0;startSize=0;swimlaneHead=0;swimlaneBody=0;fillColor=none;collapsible=0;dropTarget=0;points=[[0,0.5],[1,0.5]];portConstraint=eastwest;top=0;left=0;right=0;bottom=0;verticalAlign=middle;" vertex="1" parent="ZH82DLPUoogaxoXeRTcu-17">
          <mxGeometry y="120" width="180" height="30" as="geometry" />
        </mxCell>
        <mxCell id="ZH82DLPUoogaxoXeRTcu-28" value="" style="shape=partialRectangle;connectable=0;fillColor=none;top=0;left=0;bottom=0;right=0;editable=1;overflow=hidden;whiteSpace=wrap;html=1;verticalAlign=middle;" vertex="1" parent="ZH82DLPUoogaxoXeRTcu-27">
          <mxGeometry width="30" height="30" as="geometry">
            <mxRectangle width="30" height="30" as="alternateBounds" />
          </mxGeometry>
        </mxCell>
        <mxCell id="ZH82DLPUoogaxoXeRTcu-29" value="join_date" style="shape=partialRectangle;connectable=0;fillColor=none;top=0;left=0;bottom=0;right=0;align=left;spacingLeft=6;overflow=hidden;whiteSpace=wrap;html=1;verticalAlign=middle;" vertex="1" parent="ZH82DLPUoogaxoXeRTcu-27">
          <mxGeometry x="30" width="150" height="30" as="geometry">
            <mxRectangle width="150" height="30" as="alternateBounds" />
          </mxGeometry>
        </mxCell>
        <mxCell id="ZH82DLPUoogaxoXeRTcu-33" value="team" style="shape=table;startSize=30;container=1;collapsible=1;childLayout=tableLayout;fixedRows=1;rowLines=0;fontStyle=1;align=center;resizeLast=1;html=1;verticalAlign=middle;" vertex="1" parent="1">
          <mxGeometry x="90" y="385" width="180" height="120" as="geometry" />
        </mxCell>
        <mxCell id="ZH82DLPUoogaxoXeRTcu-34" value="" style="shape=tableRow;horizontal=0;startSize=0;swimlaneHead=0;swimlaneBody=0;fillColor=none;collapsible=0;dropTarget=0;points=[[0,0.5],[1,0.5]];portConstraint=eastwest;top=0;left=0;right=0;bottom=1;verticalAlign=middle;" vertex="1" parent="ZH82DLPUoogaxoXeRTcu-33">
          <mxGeometry y="30" width="180" height="30" as="geometry" />
        </mxCell>
        <mxCell id="ZH82DLPUoogaxoXeRTcu-35" value="PK" style="shape=partialRectangle;connectable=0;fillColor=none;top=0;left=0;bottom=0;right=0;fontStyle=1;overflow=hidden;whiteSpace=wrap;html=1;verticalAlign=middle;" vertex="1" parent="ZH82DLPUoogaxoXeRTcu-34">
          <mxGeometry width="30" height="30" as="geometry">
            <mxRectangle width="30" height="30" as="alternateBounds" />
          </mxGeometry>
        </mxCell>
        <mxCell id="ZH82DLPUoogaxoXeRTcu-36" value="team_id" style="shape=partialRectangle;connectable=0;fillColor=none;top=0;left=0;bottom=0;right=0;align=left;spacingLeft=6;fontStyle=5;overflow=hidden;whiteSpace=wrap;html=1;verticalAlign=middle;" vertex="1" parent="ZH82DLPUoogaxoXeRTcu-34">
          <mxGeometry x="30" width="150" height="30" as="geometry">
            <mxRectangle width="150" height="30" as="alternateBounds" />
          </mxGeometry>
        </mxCell>
        <mxCell id="ZH82DLPUoogaxoXeRTcu-37" value="" style="shape=tableRow;horizontal=0;startSize=0;swimlaneHead=0;swimlaneBody=0;fillColor=none;collapsible=0;dropTarget=0;points=[[0,0.5],[1,0.5]];portConstraint=eastwest;top=0;left=0;right=0;bottom=0;verticalAlign=middle;" vertex="1" parent="ZH82DLPUoogaxoXeRTcu-33">
          <mxGeometry y="60" width="180" height="30" as="geometry" />
        </mxCell>
        <mxCell id="ZH82DLPUoogaxoXeRTcu-38" value="" style="shape=partialRectangle;connectable=0;fillColor=none;top=0;left=0;bottom=0;right=0;editable=1;overflow=hidden;whiteSpace=wrap;html=1;verticalAlign=middle;" vertex="1" parent="ZH82DLPUoogaxoXeRTcu-37">
          <mxGeometry width="30" height="30" as="geometry">
            <mxRectangle width="30" height="30" as="alternateBounds" />
          </mxGeometry>
        </mxCell>
        <mxCell id="ZH82DLPUoogaxoXeRTcu-39" value="team_name" style="shape=partialRectangle;connectable=0;fillColor=none;top=0;left=0;bottom=0;right=0;align=left;spacingLeft=6;overflow=hidden;whiteSpace=wrap;html=1;verticalAlign=middle;" vertex="1" parent="ZH82DLPUoogaxoXeRTcu-37">
          <mxGeometry x="30" width="150" height="30" as="geometry">
            <mxRectangle width="150" height="30" as="alternateBounds" />
          </mxGeometry>
        </mxCell>
        <mxCell id="0sWdKeOv_VJdEBdUnHDp-1" style="shape=tableRow;horizontal=0;startSize=0;swimlaneHead=0;swimlaneBody=0;fillColor=none;collapsible=0;dropTarget=0;points=[[0,0.5],[1,0.5]];portConstraint=eastwest;top=0;left=0;right=0;bottom=0;verticalAlign=middle;" vertex="1" parent="ZH82DLPUoogaxoXeRTcu-33">
          <mxGeometry y="90" width="180" height="30" as="geometry" />
        </mxCell>
        <mxCell id="0sWdKeOv_VJdEBdUnHDp-2" value="FK" style="shape=partialRectangle;connectable=0;fillColor=none;top=0;left=0;bottom=0;right=0;editable=1;overflow=hidden;whiteSpace=wrap;html=1;verticalAlign=middle;" vertex="1" parent="0sWdKeOv_VJdEBdUnHDp-1">
          <mxGeometry width="30" height="30" as="geometry">
            <mxRectangle width="30" height="30" as="alternateBounds" />
          </mxGeometry>
        </mxCell>
        <mxCell id="0sWdKeOv_VJdEBdUnHDp-3" value="project_id" style="shape=partialRectangle;connectable=0;fillColor=none;top=0;left=0;bottom=0;right=0;align=left;spacingLeft=6;overflow=hidden;whiteSpace=wrap;html=1;verticalAlign=middle;" vertex="1" parent="0sWdKeOv_VJdEBdUnHDp-1">
          <mxGeometry x="30" width="150" height="30" as="geometry">
            <mxRectangle width="150" height="30" as="alternateBounds" />
          </mxGeometry>
        </mxCell>
        <mxCell id="0sWdKeOv_VJdEBdUnHDp-12" value="team_member" style="shape=table;startSize=30;container=1;collapsible=1;childLayout=tableLayout;fixedRows=1;rowLines=0;fontStyle=1;align=center;resizeLast=1;html=1;verticalAlign=middle;" vertex="1" parent="1">
          <mxGeometry x="324" y="385" width="180" height="150" as="geometry" />
        </mxCell>
        <mxCell id="0sWdKeOv_VJdEBdUnHDp-13" value="" style="shape=tableRow;horizontal=0;startSize=0;swimlaneHead=0;swimlaneBody=0;fillColor=none;collapsible=0;dropTarget=0;points=[[0,0.5],[1,0.5]];portConstraint=eastwest;top=0;left=0;right=0;bottom=1;verticalAlign=middle;" vertex="1" parent="0sWdKeOv_VJdEBdUnHDp-12">
          <mxGeometry y="30" width="180" height="30" as="geometry" />
        </mxCell>
        <mxCell id="0sWdKeOv_VJdEBdUnHDp-14" value="PK" style="shape=partialRectangle;connectable=0;fillColor=none;top=0;left=0;bottom=0;right=0;fontStyle=1;overflow=hidden;whiteSpace=wrap;html=1;verticalAlign=middle;" vertex="1" parent="0sWdKeOv_VJdEBdUnHDp-13">
          <mxGeometry width="30" height="30" as="geometry">
            <mxRectangle width="30" height="30" as="alternateBounds" />
          </mxGeometry>
        </mxCell>
        <mxCell id="0sWdKeOv_VJdEBdUnHDp-15" value="team_member_id" style="shape=partialRectangle;connectable=0;fillColor=none;top=0;left=0;bottom=0;right=0;align=left;spacingLeft=6;fontStyle=5;overflow=hidden;whiteSpace=wrap;html=1;verticalAlign=middle;" vertex="1" parent="0sWdKeOv_VJdEBdUnHDp-13">
          <mxGeometry x="30" width="150" height="30" as="geometry">
            <mxRectangle width="150" height="30" as="alternateBounds" />
          </mxGeometry>
        </mxCell>
        <mxCell id="0sWdKeOv_VJdEBdUnHDp-16" value="" style="shape=tableRow;horizontal=0;startSize=0;swimlaneHead=0;swimlaneBody=0;fillColor=none;collapsible=0;dropTarget=0;points=[[0,0.5],[1,0.5]];portConstraint=eastwest;top=0;left=0;right=0;bottom=0;verticalAlign=middle;" vertex="1" parent="0sWdKeOv_VJdEBdUnHDp-12">
          <mxGeometry y="60" width="180" height="30" as="geometry" />
        </mxCell>
        <mxCell id="0sWdKeOv_VJdEBdUnHDp-17" value="FK" style="shape=partialRectangle;connectable=0;fillColor=none;top=0;left=0;bottom=0;right=0;editable=1;overflow=hidden;whiteSpace=wrap;html=1;verticalAlign=middle;" vertex="1" parent="0sWdKeOv_VJdEBdUnHDp-16">
          <mxGeometry width="30" height="30" as="geometry">
            <mxRectangle width="30" height="30" as="alternateBounds" />
          </mxGeometry>
        </mxCell>
        <mxCell id="0sWdKeOv_VJdEBdUnHDp-18" value="team_id" style="shape=partialRectangle;connectable=0;fillColor=none;top=0;left=0;bottom=0;right=0;align=left;spacingLeft=6;overflow=hidden;whiteSpace=wrap;html=1;verticalAlign=middle;" vertex="1" parent="0sWdKeOv_VJdEBdUnHDp-16">
          <mxGeometry x="30" width="150" height="30" as="geometry">
            <mxRectangle width="150" height="30" as="alternateBounds" />
          </mxGeometry>
        </mxCell>
        <mxCell id="0sWdKeOv_VJdEBdUnHDp-19" value="" style="shape=tableRow;horizontal=0;startSize=0;swimlaneHead=0;swimlaneBody=0;fillColor=none;collapsible=0;dropTarget=0;points=[[0,0.5],[1,0.5]];portConstraint=eastwest;top=0;left=0;right=0;bottom=0;verticalAlign=middle;" vertex="1" parent="0sWdKeOv_VJdEBdUnHDp-12">
          <mxGeometry y="90" width="180" height="30" as="geometry" />
        </mxCell>
        <mxCell id="0sWdKeOv_VJdEBdUnHDp-20" value="FK" style="shape=partialRectangle;connectable=0;fillColor=none;top=0;left=0;bottom=0;right=0;editable=1;overflow=hidden;whiteSpace=wrap;html=1;verticalAlign=middle;" vertex="1" parent="0sWdKeOv_VJdEBdUnHDp-19">
          <mxGeometry width="30" height="30" as="geometry">
            <mxRectangle width="30" height="30" as="alternateBounds" />
          </mxGeometry>
        </mxCell>
        <mxCell id="0sWdKeOv_VJdEBdUnHDp-21" value="user_id" style="shape=partialRectangle;connectable=0;fillColor=none;top=0;left=0;bottom=0;right=0;align=left;spacingLeft=6;overflow=hidden;whiteSpace=wrap;html=1;verticalAlign=middle;" vertex="1" parent="0sWdKeOv_VJdEBdUnHDp-19">
          <mxGeometry x="30" width="150" height="30" as="geometry">
            <mxRectangle width="150" height="30" as="alternateBounds" />
          </mxGeometry>
        </mxCell>
        <mxCell id="IQQkmplxxAsxR5ZTMlIL-1" style="shape=tableRow;horizontal=0;startSize=0;swimlaneHead=0;swimlaneBody=0;fillColor=none;collapsible=0;dropTarget=0;points=[[0,0.5],[1,0.5]];portConstraint=eastwest;top=0;left=0;right=0;bottom=0;verticalAlign=middle;" vertex="1" parent="0sWdKeOv_VJdEBdUnHDp-12">
          <mxGeometry y="120" width="180" height="30" as="geometry" />
        </mxCell>
        <mxCell id="IQQkmplxxAsxR5ZTMlIL-2" style="shape=partialRectangle;connectable=0;fillColor=none;top=0;left=0;bottom=0;right=0;editable=1;overflow=hidden;whiteSpace=wrap;html=1;verticalAlign=middle;" vertex="1" parent="IQQkmplxxAsxR5ZTMlIL-1">
          <mxGeometry width="30" height="30" as="geometry">
            <mxRectangle width="30" height="30" as="alternateBounds" />
          </mxGeometry>
        </mxCell>
        <mxCell id="IQQkmplxxAsxR5ZTMlIL-3" value="assignment_date" style="shape=partialRectangle;connectable=0;fillColor=none;top=0;left=0;bottom=0;right=0;align=left;spacingLeft=6;overflow=hidden;whiteSpace=wrap;html=1;verticalAlign=middle;" vertex="1" parent="IQQkmplxxAsxR5ZTMlIL-1">
          <mxGeometry x="30" width="150" height="30" as="geometry">
            <mxRectangle width="150" height="30" as="alternateBounds" />
          </mxGeometry>
        </mxCell>
        <mxCell id="0sWdKeOv_VJdEBdUnHDp-28" style="edgeStyle=orthogonalEdgeStyle;rounded=0;orthogonalLoop=1;jettySize=auto;html=1;entryX=1;entryY=0.5;entryDx=0;entryDy=0;startArrow=ERmany;startFill=0;endArrow=ERone;endFill=0;" edge="1" parent="1" source="0sWdKeOv_VJdEBdUnHDp-16" target="ZH82DLPUoogaxoXeRTcu-34">
          <mxGeometry relative="1" as="geometry" />
        </mxCell>
        <mxCell id="0sWdKeOv_VJdEBdUnHDp-29" style="edgeStyle=orthogonalEdgeStyle;rounded=0;orthogonalLoop=1;jettySize=auto;html=1;entryX=0;entryY=0.5;entryDx=0;entryDy=0;startArrow=ERmany;startFill=0;endArrow=ERone;endFill=0;" edge="1" parent="1" source="0sWdKeOv_VJdEBdUnHDp-19" target="ZH82DLPUoogaxoXeRTcu-18">
          <mxGeometry relative="1" as="geometry" />
        </mxCell>
        <mxCell id="6NO5UvyONiHMHVDqTija-1" style="edgeStyle=orthogonalEdgeStyle;rounded=0;orthogonalLoop=1;jettySize=auto;html=1;entryX=0;entryY=0.5;entryDx=0;entryDy=0;startArrow=ERoneToMany;startFill=0;endArrow=ERmandOne;endFill=0;" edge="1" parent="1" source="0sWdKeOv_VJdEBdUnHDp-1" target="ZH82DLPUoogaxoXeRTcu-2">
          <mxGeometry relative="1" as="geometry">
            <Array as="points">
              <mxPoint x="30" y="490" />
              <mxPoint x="30" y="348" />
              <mxPoint x="160" y="348" />
              <mxPoint x="160" y="205" />
            </Array>
          </mxGeometry>
        </mxCell>
      </root>
    </mxGraphModel>
  </diagram>
</mxfile>
